<svg
   width="10"
   height="10"
   viewBox="0 0 10 10"
   version="1.1"
   id="svg5"
   inkscape:version="1.1 (c4e8f9ed74, 2021-05-24)"
   sodipodi:docname="icon.svg"
   xmlns:inkscape="http://www.inkscape.org/namespaces/inkscape"
   xmlns:sodipodi="http://sodipodi.sourceforge.net/DTD/sodipodi-0.dtd"
   xmlns="http://www.w3.org/2000/svg"
   xmlns:svg="http://www.w3.org/2000/svg">
  <sodipodi:namedview
     id="namedview7"
     pagecolor="#ffffff"
     bordercolor="#666666"
     borderopacity="1.0"
     inkscape:pageshadow="2"
     inkscape:pageopacity="0.0"
     inkscape:pagecheckerboard="0"
     inkscape:document-units="mm"
     showgrid="false"
     inkscape:snap-bbox="true"
     inkscape:bbox-paths="true"
     inkscape:bbox-nodes="true"
     inkscape:snap-bbox-edge-midpoints="true"
     inkscape:snap-bbox-midpoints="true"
     inkscape:snap-center="true"
     inkscape:snap-object-midpoints="true"
     inkscape:zoom="14.654649"
     inkscape:cx="13.511071"
     inkscape:cy="23.132591"
     inkscape:window-width="1920"
     inkscape:window-height="1015"
     inkscape:window-x="1080"
     inkscape:window-y="543"
     inkscape:window-maximized="1"
     inkscape:current-layer="text6390" />
  <defs
     id="defs2" />
  <g
     inkscape:label="Layer 1"
     inkscape:groupmode="layer"
     id="layer1">
    <circle
       style="fill:#ff6600;stroke-width:0.712315"
       id="path846"
       cx="5"
       cy="5"
       r="5" />
    <g
       aria-label="GUID"
       id="text6390"
       style="font-size:3.52778px;line-height:1.25;text-align:center;text-anchor:middle;stroke-width:0.264583">
      <path
         id="path830"
         sodipodi:type="inkscape:offset"
         inkscape:radius="0"
         inkscape:original="M 1.9511719 3.6660156 C 1.5492438 3.6660156 1.2332358 3.7841163 1.0058594 4.0195312 C 0.77963129 4.2537979 0.66601562 4.5796981 0.66601562 5 C 0.66601562 5.4191536 0.77963129 5.7470069 1.0058594 5.9824219 C 1.2332358 6.2166885 1.5492438 6.3339844 1.9511719 6.3339844 C 2.1349104 6.3339844 2.3068304 6.3099501 2.46875 6.2617188 C 2.6306696 6.212339 2.7797037 6.1402363 2.9140625 6.0449219 L 2.9140625 4.9414062 L 2 4.9414062 L 2 5.2265625 L 2.5683594 5.2265625 L 2.5683594 5.9179688 C 2.4914188 5.9627552 2.4050565 5.9957595 2.3085938 6.0175781 C 2.212131 6.0382488 2.1033439 6.0488281 1.9804688 6.0488281 C 1.6658165 6.0488281 1.4280057 5.9608562 1.2695312 5.7851562 C 1.1122051 5.6094562 1.0332031 5.3468065 1.0332031 5 C 1.0332031 4.6520451 1.1122051 4.3905437 1.2695312 4.2148438 C 1.4280057 4.0391437 1.6658165 3.9511719 1.9804688 3.9511719 C 2.1400916 3.9511719 2.2908528 3.9800347 2.4355469 4.0351562 C 2.580241 4.0902779 2.7170861 4.1721551 2.8457031 4.28125 L 2.8457031 3.9101562 C 2.7182345 3.8297708 2.5793186 3.769857 2.4277344 3.7285156 C 2.2772984 3.6871743 2.1188333 3.6660156 1.9511719 3.6660156 z M 3.5097656 3.7128906 L 3.5097656 5.3183594 C 3.5097656 5.6536822 3.5924478 5.9070185 3.7578125 6.078125 C 3.9243256 6.2492315 4.1691531 6.3339844 4.4941406 6.3339844 C 4.8179798 6.3339844 5.063151 6.2492315 5.2285156 6.078125 C 5.3950287 5.9070185 5.4785156 5.6536822 5.4785156 5.3183594 L 5.4785156 3.7128906 L 5.1289062 3.7128906 L 5.1289062 5.2753906 C 5.1289063 5.5509984 5.0784235 5.7493669 4.9785156 5.8710938 C 4.8786078 5.9916722 4.7169236 6.0507812 4.4941406 6.0507812 C 4.2702093 6.0507813 4.1077204 5.9916722 4.0078125 5.8710938 C 3.9079047 5.749367 3.859375 5.5509984 3.859375 5.2753906 L 3.859375 3.7128906 L 3.5097656 3.7128906 z M 6.1308594 3.7128906 L 6.1308594 6.2832031 L 6.4785156 6.2832031 L 6.4785156 3.7128906 L 6.1308594 3.7128906 z M 7.171875 3.7128906 L 7.171875 6.2832031 L 7.8867188 6.2832031 C 8.3828128 6.2832031 8.7481552 6.1805104 8.9824219 5.9726562 C 9.2166885 5.7648021 9.3339844 5.439363 9.3339844 4.9960938 C 9.3339844 4.5551212 9.2155401 4.2301434 8.9824219 4.0234375 C 8.7493035 3.8155833 8.3851095 3.7128906 7.8867188 3.7128906 L 7.171875 3.7128906 z M 7.5195312 3.9980469 L 7.9394531 3.9980469 C 8.2942982 3.9980469 8.5545337 4.0794632 8.71875 4.2402344 C 8.8841147 4.3998572 8.9667969 4.651584 8.9667969 4.9960938 C 8.9667969 5.3429002 8.8841147 5.5970412 8.71875 5.7578125 C 8.5545337 5.9185837 8.2942982 5.9980469 7.9394531 5.9980469 L 7.5195312 5.9980469 L 7.5195312 3.9980469 z "
         d="m 1.9511719,3.6660156 c -0.4019281,0 -0.7179361,0.1181007 -0.9453125,0.3535156 C 0.77963129,4.2537979 0.66601562,4.5796981 0.66601562,5 c 0,0.4191536 0.11361567,0.7470069 0.33984378,0.9824219 0.2273764,0.2342666 0.5433844,0.3515625 0.9453125,0.3515625 0.1837385,0 0.3556585,-0.024034 0.5175781,-0.072266 C 2.6306696,6.212339 2.7797037,6.1402363 2.9140625,6.0449219 V 4.9414062 H 2 v 0.2851563 h 0.5683594 v 0.6914063 c -0.076941,0.044786 -0.1633029,0.077791 -0.2597656,0.099609 -0.096463,0.020671 -0.2052499,0.03125 -0.328125,0.03125 -0.3146523,0 -0.5524631,-0.087972 -0.7109376,-0.2636719 C 1.1122051,5.6094562 1.0332031,5.3468065 1.0332031,5 c 0,-0.3479549 0.079002,-0.6094563 0.2363281,-0.7851562 0.1584745,-0.1757001 0.3962853,-0.2636719 0.7109376,-0.2636719 0.1596228,0 0.310384,0.028863 0.4550781,0.083984 C 2.580241,4.0902779 2.7170861,4.1721551 2.8457031,4.28125 V 3.9101562 C 2.7182345,3.8297708 2.5793186,3.769857 2.4277344,3.7285156 c -0.150436,-0.041341 -0.3089011,-0.0625 -0.4765625,-0.0625 z m 1.5585937,0.046875 v 1.6054688 c 0,0.3353228 0.082682,0.5886591 0.2480469,0.7597656 0.1665131,0.1711065 0.4113406,0.2558594 0.7363281,0.2558594 0.3238392,0 0.5690104,-0.084753 0.734375,-0.2558594 0.1665131,-0.1711065 0.25,-0.4244428 0.25,-0.7597656 V 3.7128906 H 5.1289062 v 1.5625 c 10e-8,0.2756078 -0.050483,0.4739763 -0.1503906,0.5957032 C 4.8786078,5.9916722 4.7169236,6.0507812 4.4941406,6.0507812 4.2702093,6.0507813 4.1077204,5.9916722 4.0078125,5.8710938 3.9079047,5.749367 3.859375,5.5509984 3.859375,5.2753906 v -1.5625 z m 2.6210938,0 V 6.2832031 H 6.4785156 V 3.7128906 Z m 1.0410156,0 v 2.5703125 h 0.7148438 c 0.496094,0 0.8614364,-0.1026927 1.0957031,-0.3105469 C 9.2166885,5.7648021 9.3339844,5.439363 9.3339844,4.9960938 9.3339844,4.5551212 9.2155401,4.2301434 8.9824219,4.0234375 8.7493035,3.8155833 8.3851095,3.7128906 7.8867188,3.7128906 Z m 0.3476562,0.2851563 h 0.4199219 c 0.3548451,0 0.6150806,0.081416 0.7792969,0.2421875 0.1653647,0.1596228 0.2480469,0.4113496 0.2480469,0.7558594 0,0.3468064 -0.082682,0.6009474 -0.2480469,0.7617187 C 8.5545337,5.9185837 8.2942982,5.9980469 7.9394531,5.9980469 H 7.5195312 Z" />
    </g>
  </g>
</svg>
